<svg xmlns="http://www.w3.org/2000/svg" xmlns:xlink="http://www.w3.org/1999/xlink" width="158" height="190" viewBox="0 0 158 190">
    <defs>
        <filter id="a" width="115.5%" height="112.9%" x="-7.6%" y="-4.7%" filterUnits="objectBoundingBox">
            <feOffset dy="2" in="SourceAlpha" result="shadowOffsetOuter1"/>
            <feGaussianBlur in="shadowOffsetOuter1" result="shadowBlurOuter1" stdDeviation="2.5"/>
            <feColorMatrix in="shadowBlurOuter1" result="shadowMatrixOuter1" values="0 0 0 0 0.314402269 0 0 0 0 0.418148653 0 0 0 0 0.547831633 0 0 0 0.200067935 0"/>
            <feMerge>
                <feMergeNode in="shadowMatrixOuter1"/>
                <feMergeNode in="SourceGraphic"/>
            </feMerge>
        </filter>
        <path id="b" d="M1.748.915h108.3c.63 0 1.14.51 1.14 1.14V118.56L91.2 138.855H1.748c-.63 0-1.14-.51-1.14-1.14V2.055c0-.63.51-1.14 1.14-1.14z"/>
    </defs>
    <g fill="none" fill-rule="evenodd">
        <path fill="#0D293E" d="M28.393 13.249l122.952 6.44a3.42 3.42 0 0 1 3.236 3.595v.003l-8.532 159.796a3.42 3.42 0 0 1-3.594 3.234l-122.952-6.438a3.42 3.42 0 0 1-3.236-3.597L24.8 16.485a3.42 3.42 0 0 1 3.594-3.233z" opacity=".05"/>
        <path fill="#B7DEFB" d="M19.4 11.981l121.516 10.632a3.42 3.42 0 0 1 3.109 3.705l-13.016 148.771a3.42 3.42 0 0 1-3.705 3.11L5.788 167.566a3.42 3.42 0 0 1-3.11-3.705L15.696 15.09a3.42 3.42 0 0 1 3.705-3.109z"/>
        <g filter="url(#a)" transform="rotate(5 -224.035 282.8)">
            <mask id="c" fill="#fff">
                <use xlink:href="#b"/>
            </mask>
            <use fill="#FFF" xlink:href="#b"/>
            <path fill="#EDF0F6" d="M90.294 118.335h21.377l-21.377 21.377z" mask="url(#c)"/>
        </g>
        <path fill="#4F689A" d="M69.358 13.497c.072-.117.168-.226.288-.327 2.47-2.073 4.34-9.48 11.683-8.838 7.344.642 7.921 7.12 9.895 10.726.082.151.146.301.193.45l22.628 2.064a2.28 2.28 0 0 1 2.064 2.47l-.993 11.356a2.28 2.28 0 0 1-2.479 2.072L46.36 27.426a2.28 2.28 0 0 1-2.064-2.47L45.29 13.6a2.28 2.28 0 0 1 2.478-2.072l21.59 1.97zm10.891 2.756a3.42 3.42 0 1 0 .596-6.814 3.42 3.42 0 0 0-.596 6.814z"/>
        <g transform="rotate(5 -785.755 615.796)">
            <path stroke="#4F689A" stroke-linecap="round" stroke-linejoin="round" stroke-width="2.736" d="M30.749 21.593a6.84 6.84 0 1 0-13.68 0"/>
            <path stroke="#4F689A" stroke-linecap="round" stroke-linejoin="round" stroke-width="1.71" d="M2.47.067c0 1.889 1.531 4.56 3.42 4.56S9.31 1.956 9.31.067"/>
            <ellipse cx="5.89" cy="10.327" fill="#B6D8F2" opacity=".3" rx="5.73" ry="2.28"/>
            <ellipse cx="43.54" cy="10.327" fill="#B6D8F2" opacity=".3" rx="5.73" ry="2.28"/>
            <path stroke="#4F689A" stroke-linecap="round" stroke-linejoin="round" stroke-width="1.71" d="M40.09.067c0 1.889 1.531 4.56 3.42 4.56s3.42-2.671 3.42-4.56"/>
        </g>
    </g>
</svg>
